<svg width="70" height="70" viewBox="0 0 70 70" fill="none" xmlns="http://www.w3.org/2000/svg">
<rect y="-0.000976562" width="70" height="70" fill="#E3B873"/>
<g clip-path="url(#clip0)">
<path d="M37.3697 12.999C28.3791 12.999 21.0647 20.3134 21.0647 29.304V31.9778L16.5248 39.7914C16.4677 39.8897 16.4375 40.0015 16.4375 40.1153V42.8291C16.4375 43.1852 16.7262 43.4736 17.082 43.4736H21.0647L21.065 47.8121C21.065 49.7376 22.6314 51.304 24.5569 51.304H25.8681C26.224 51.304 26.5123 51.0153 26.5123 50.6595C26.5123 50.3033 26.224 50.0149 25.8678 50.0149H24.5569C23.342 50.0149 22.3541 49.0266 22.3541 47.8121V43.4736H24.2007C24.5566 43.4736 24.8453 43.1852 24.8453 42.8291V38.558C24.8453 38.2022 24.5566 37.9135 24.2007 37.9135H22.7771C22.4209 37.9135 22.1325 38.2022 22.1325 38.558C22.1325 38.9142 22.4209 39.2026 22.7771 39.2026H23.5562V42.1845H17.7266V40.6263H19.9294C20.2852 40.6263 20.5739 40.3376 20.5739 39.9817C20.5739 39.6255 20.2852 39.3372 19.9294 39.3372H18.2798L22.2581 32.4897C22.3188 32.391 22.3538 32.2752 22.3538 32.1517V29.304C22.3538 21.0244 29.0898 14.2881 37.3697 14.2881C45.6499 14.2881 52.3859 21.0244 52.3859 29.304V34.9987C52.3859 41.1919 48.6822 46.6533 42.9402 48.9467H41.2849C40.9287 48.9467 40.6403 49.2351 40.6403 49.5913C40.6403 49.9474 40.9287 50.2358 41.2849 50.2358H42.4202V55.71H30.54V51.304H32.0308C32.387 51.304 32.6753 51.0156 32.6753 50.6595C32.6753 50.3036 32.387 50.0149 32.0308 50.0149H29.8971H29.8954H28.4503C28.0945 50.0149 27.8058 50.3033 27.8058 50.6595C27.8058 51.0153 28.0945 51.304 28.4503 51.304H29.2509V56.3545C29.2509 56.7107 29.5396 56.999 29.8954 56.999H43.0647C43.4205 56.999 43.7092 56.7107 43.7092 56.3545V50.025C46.5559 48.8239 48.9883 46.8513 50.7642 44.2987C52.6682 41.5612 53.675 38.3456 53.675 34.9987V29.304C53.675 20.3134 46.3605 12.999 37.3697 12.999Z" fill="white"/>
<path d="M28.885 28.5923C28.885 30.3319 29.408 32.0033 30.398 33.4263C31.2798 34.6939 32.4729 35.6859 33.8677 36.3163V37.6467H33.8006C33.4444 37.6467 33.156 37.935 33.156 38.2912C33.156 38.647 33.4444 38.9357 33.8006 38.9357H33.8677V40.6938C33.8677 41.0496 34.1564 41.3383 34.5122 41.3383H34.5797V42.8294C34.5797 43.1853 34.8684 43.474 35.2242 43.474H39.4953C39.8511 43.474 40.1398 43.1853 40.1398 42.8294V41.3383H40.2073C40.5631 41.3383 40.8518 41.0496 40.8518 40.6938V38.9357H40.9189C41.2751 38.9357 41.5635 38.647 41.5635 38.2912C41.5635 37.935 41.2751 37.6467 40.9189 37.6467H40.8518V36.3163C42.2466 35.6859 43.4397 34.6939 44.3215 33.4263C45.3112 32.0033 45.8345 30.3319 45.8345 28.5923C45.8345 23.9192 42.0328 20.1174 37.3596 20.1174C32.6867 20.1174 28.885 23.9192 28.885 28.5923ZM35.8688 30.6606H36.381L37.6157 31.8956C37.7366 32.0164 37.9007 32.0846 38.0716 32.0846C38.2425 32.0846 38.4066 32.0164 38.5275 31.8956L38.8507 31.5723V35.2441H35.8688V30.6606ZM38.8507 42.1849H35.8688V41.3383H38.8507V42.1849ZM39.5627 40.0492H35.1568V38.9357H39.5627V40.0492ZM35.1568 37.6467V36.5332H39.5627V37.6467H35.1568ZM37.3599 21.4065C41.3221 21.4065 44.5454 24.6302 44.5454 28.5923C44.5454 31.5146 42.822 34.0957 40.1398 35.2193V30.016C40.1398 30.016 40.1398 30.016 40.1398 30.0157V29.304C40.1398 28.9482 39.8511 28.6595 39.4953 28.6595C39.1391 28.6595 38.8507 28.9482 38.8507 29.304V29.7491L38.0716 30.5283L37.1038 29.5601C36.9829 29.4393 36.8188 29.3715 36.6479 29.3715H35.8688V29.304C35.8688 28.9482 35.5804 28.6595 35.2242 28.6595C34.8684 28.6595 34.5797 28.9482 34.5797 29.304V35.2193C31.8975 34.0957 30.1741 31.5146 30.1741 28.5923C30.1741 24.6302 33.3974 21.4065 37.3599 21.4065Z" fill="white"/>
<path d="M38.0041 18.6263V16.491C38.0041 16.1348 37.7157 15.8464 37.3596 15.8464C37.0037 15.8464 36.715 16.1348 36.715 16.491V18.6263C36.715 18.9825 37.0037 19.2708 37.3596 19.2708C37.7157 19.2708 38.0041 18.9825 38.0041 18.6263Z" fill="white"/>
<path d="M29.1955 19.6056C28.9438 19.3541 28.5356 19.3541 28.2838 19.6056C28.0324 19.8573 28.0324 20.2655 28.2838 20.5173L29.7941 22.0273C29.92 22.1531 30.0848 22.2163 30.2499 22.2163C30.4148 22.2163 30.5796 22.1531 30.7055 22.0273C30.9573 21.7755 30.9573 21.3676 30.7055 21.1159L29.1955 19.6056Z" fill="white"/>
<path d="M27.3049 28.0369H25.1693C24.8134 28.0369 24.5247 28.3256 24.5247 28.6814C24.5247 29.0376 24.8134 29.3259 25.1693 29.3259H27.3049C27.6608 29.3259 27.9495 29.0376 27.9495 28.6814C27.9495 28.3256 27.6608 28.0369 27.3049 28.0369Z" fill="white"/>
<path d="M29.7944 35.3354L28.2841 36.8457C28.0323 37.0975 28.0323 37.5054 28.2841 37.7571C28.41 37.883 28.5748 37.9458 28.7396 37.9458C28.9048 37.9458 29.0696 37.883 29.1955 37.7571L30.7058 36.2472C30.9576 35.9954 30.9576 35.5872 30.7058 35.3354C30.454 35.0837 30.0458 35.084 29.7944 35.3354Z" fill="white"/>
<path d="M44.014 35.3353C43.7623 35.5871 43.7623 35.9949 44.014 36.2467L45.524 37.757C45.6499 37.8829 45.815 37.9457 45.9798 37.9457C46.1447 37.9457 46.3098 37.8829 46.4357 37.757C46.6875 37.5052 46.6875 37.097 46.4357 36.8453L44.9254 35.3353C44.6737 35.0835 44.2658 35.0835 44.014 35.3353Z" fill="white"/>
<path d="M49.5503 29.3259C49.9065 29.3259 50.1948 29.0372 50.1948 28.6814C50.1948 28.3252 49.9065 28.0369 49.5503 28.0369H47.4146C47.0584 28.0369 46.7701 28.3252 46.7701 28.6814C46.7701 29.0372 47.0584 29.3259 47.4146 29.3259H49.5503Z" fill="white"/>
<path d="M45.524 19.6053L44.0137 21.1156C43.7623 21.3674 43.7623 21.7753 44.014 22.027C44.1396 22.1529 44.3047 22.2157 44.4696 22.2157C44.6344 22.2157 44.7996 22.1529 44.9254 22.027L46.4354 20.5167C46.6872 20.265 46.6872 19.8571 46.4354 19.6053C46.184 19.3536 45.7758 19.3536 45.524 19.6053Z" fill="white"/>
</g>
<defs>
<clipPath id="clip0">
<rect width="44" height="44" fill="white" transform="translate(13 12.999)"/>
</clipPath>
</defs>
</svg>
