<svg width="70" height="70" viewBox="0 0 70 70" fill="none" xmlns="http://www.w3.org/2000/svg">
<rect y="-0.000976562" width="70" height="70" fill="#E3B873"/>
<path d="M42.6292 15.9234L42.4547 16.892C45.4466 18.0061 48.1541 19.831 50.3396 22.2465C53.6824 25.9421 55.5234 30.7233 55.5234 35.7108C55.5234 35.7908 55.4589 35.8553 55.3789 35.8553C55.299 35.8553 55.2343 35.7906 55.2343 35.7108C55.2343 25.8154 48.0045 17.5232 38.2983 16.1286L37.7272 16.0465V16.6235V17.9146C37.7272 17.9946 37.6627 18.0591 37.5827 18.0591H33.3116C33.2318 18.0591 33.1671 17.9945 33.1671 17.9146V16.6235V16.0465L32.596 16.1286C22.8898 17.5232 15.6597 25.8154 15.6597 35.7108C15.6597 35.7906 15.595 35.8553 15.5151 35.8553C15.4353 35.8553 15.3706 35.7906 15.3706 35.7108C15.3706 30.7233 17.2116 25.9421 20.5548 22.2465C22.7399 19.831 25.4474 18.0065 28.4393 16.8923L28.2648 15.9238H20.3273H19.9655L19.8524 16.2675C19.646 16.8947 19.0549 17.3471 18.3625 17.3471C17.4982 17.3471 16.7943 16.6434 16.7943 15.7792C16.7943 14.915 17.4983 14.211 18.3625 14.211C19.0549 14.211 19.646 14.6635 19.8523 15.2909L19.9654 15.6347H20.3273H32.6671H33.1671V15.1347V13.6436C33.1671 13.5637 33.2318 13.499 33.3116 13.499H37.5827C37.6627 13.499 37.7272 13.5635 37.7272 13.6436V15.1344V15.6344H38.2272H50.567H50.9289L51.042 15.2906C51.2483 14.6634 51.8394 14.211 52.5315 14.211C53.3958 14.211 54.0997 14.9148 54.0997 15.7789C54.0997 16.6432 53.396 17.3471 52.5315 17.3471C51.8391 17.3471 51.248 16.8947 51.0417 16.2672L50.9286 15.9234H50.5667H42.6292ZM33.4562 17.2701V17.7701H33.9562H36.9382H37.4382V17.2701V15.891V15.8887V15.7806V15.7789V15.7772V14.2881V13.7881H36.9382H33.9562H33.4562V14.2881V15.8897V15.89V17.2701ZM53.8106 15.7789C53.8106 15.0733 53.2372 14.5001 52.5315 14.5001C51.8258 14.5001 51.2524 15.0733 51.2524 15.7789C51.2524 16.4847 51.8257 17.0581 52.5315 17.0581C53.2373 17.0581 53.8106 16.4847 53.8106 15.7789ZM17.0834 15.7792C17.0834 16.4849 17.6568 17.0581 18.3625 17.0581C19.0682 17.0581 19.6416 16.4849 19.6416 15.7792C19.6416 15.0734 19.0683 14.5001 18.3625 14.5001C17.6567 14.5001 17.0834 15.0734 17.0834 15.7792Z" fill="white" stroke="white" stroke-width="0.999998"/>
<mask id="path-3-inside-1" fill="white">
<path d="M37.4336 20.4478C37.3198 20.2437 37.1047 20.1172 36.871 20.1172H34.0233C33.79 20.1172 33.5745 20.2437 33.4607 20.4478L24.9183 35.7525C24.8649 35.8485 24.8367 35.9566 24.8367 36.0667V36.7787C24.8367 36.9006 24.8713 37.0197 24.9364 37.1228L28.5831 42.8964H26.1929C25.8371 42.8964 25.5484 43.1848 25.5484 43.5409C25.5484 43.8968 25.8371 44.1855 26.1929 44.1855H26.2604V46.3883C26.2604 46.7445 26.5487 47.0328 26.9049 47.0328H27.6837V49.236C27.6837 49.5918 27.9724 49.8805 28.3283 49.8805H29.1077V52.081V52.0834V52.086V56.3544C29.1077 56.7106 29.3964 56.9989 29.7523 56.9989H41.142C41.4979 56.9989 41.7866 56.7106 41.7866 56.3544V49.8805H42.5657C42.9216 49.8805 43.2103 49.5918 43.2103 49.236V47.0328H43.9894C44.3452 47.0328 44.6339 46.7445 44.6339 46.3883V44.1855H44.7014C45.0573 44.1855 45.346 43.8968 45.346 43.5409C45.346 43.1848 45.0573 42.8964 44.7014 42.8964H43.9911C43.9904 42.8964 43.9901 42.8964 43.9894 42.8964C43.9887 42.8964 43.9884 42.8964 43.9877 42.8964H42.3113L45.9579 37.1228C46.023 37.0197 46.0576 36.9006 46.0576 36.7787V36.0667C46.0576 35.9566 46.0294 35.8485 45.9757 35.7525L37.4336 20.4478ZM35.4473 34.2197C35.877 34.2197 36.2265 34.5692 36.2265 34.9989C36.2265 35.4285 35.877 35.778 35.4473 35.778C35.0176 35.778 34.6682 35.4285 34.6682 34.9989C34.6682 34.5692 35.0176 34.2197 35.4473 34.2197ZM41.9212 48.5911H34.8495C34.4936 48.5911 34.2049 48.8798 34.2049 49.2357C34.2049 49.5918 34.4936 49.8802 34.8495 49.8802H40.4975V51.4385H39.718C39.3622 51.4385 39.0735 51.7269 39.0735 52.083C39.0735 52.4392 39.3622 52.7276 39.718 52.7276H40.4972V55.7099H30.3968V52.7279H31.176C31.5318 52.7279 31.8205 52.4395 31.8205 52.0834C31.8205 51.7272 31.5318 51.4388 31.176 51.4388H30.3968V49.8802H32.0954C32.4516 49.8802 32.74 49.5918 32.74 49.2357C32.74 48.8798 32.4516 48.5911 32.0954 48.5911H28.9728V47.0328H41.9212V48.5911ZM43.3449 45.7438H27.5494V44.1855H41.14H41.1414H41.1427H43.3449V45.7438ZM44.7686 36.5921L43.4842 38.6254H41.8537C41.4979 38.6254 41.2092 38.9137 41.2092 39.2699C41.2092 39.6261 41.4979 39.9144 41.8537 39.9144H42.6701L40.7865 42.8964H36.0915V41.4053C36.0915 41.0494 35.8032 40.7607 35.447 40.7607C35.0912 40.7607 34.8025 41.0494 34.8025 41.4053V42.8964H30.1074L28.2242 39.9144H29.0403C29.3964 39.9144 29.6848 39.6261 29.6848 39.2699C29.6848 38.9137 29.3964 38.6254 29.0403 38.6254H27.4098L26.1258 36.5921V36.2342L34.402 21.4063H34.8025V33.034C33.977 33.3056 33.3788 34.0834 33.3788 34.9985C33.3788 36.1392 34.3066 37.0671 35.447 37.0671C36.5877 37.0671 37.5155 36.1392 37.5155 34.9985C37.5155 34.0834 36.9173 33.3053 36.0919 33.034V21.4063H36.4923L44.7686 36.2342V36.5921Z"/>
</mask>
<path d="M37.4336 20.4478C37.3198 20.2437 37.1047 20.1172 36.871 20.1172H34.0233C33.79 20.1172 33.5745 20.2437 33.4607 20.4478L24.9183 35.7525C24.8649 35.8485 24.8367 35.9566 24.8367 36.0667V36.7787C24.8367 36.9006 24.8713 37.0197 24.9364 37.1228L28.5831 42.8964H26.1929C25.8371 42.8964 25.5484 43.1848 25.5484 43.5409C25.5484 43.8968 25.8371 44.1855 26.1929 44.1855H26.2604V46.3883C26.2604 46.7445 26.5487 47.0328 26.9049 47.0328H27.6837V49.236C27.6837 49.5918 27.9724 49.8805 28.3283 49.8805H29.1077V52.081V52.0834V52.086V56.3544C29.1077 56.7106 29.3964 56.9989 29.7523 56.9989H41.142C41.4979 56.9989 41.7866 56.7106 41.7866 56.3544V49.8805H42.5657C42.9216 49.8805 43.2103 49.5918 43.2103 49.236V47.0328H43.9894C44.3452 47.0328 44.6339 46.7445 44.6339 46.3883V44.1855H44.7014C45.0573 44.1855 45.346 43.8968 45.346 43.5409C45.346 43.1848 45.0573 42.8964 44.7014 42.8964H43.9911C43.9904 42.8964 43.9901 42.8964 43.9894 42.8964C43.9887 42.8964 43.9884 42.8964 43.9877 42.8964H42.3113L45.9579 37.1228C46.023 37.0197 46.0576 36.9006 46.0576 36.7787V36.0667C46.0576 35.9566 46.0294 35.8485 45.9757 35.7525L37.4336 20.4478ZM35.4473 34.2197C35.877 34.2197 36.2265 34.5692 36.2265 34.9989C36.2265 35.4285 35.877 35.778 35.4473 35.778C35.0176 35.778 34.6682 35.4285 34.6682 34.9989C34.6682 34.5692 35.0176 34.2197 35.4473 34.2197ZM41.9212 48.5911H34.8495C34.4936 48.5911 34.2049 48.8798 34.2049 49.2357C34.2049 49.5918 34.4936 49.8802 34.8495 49.8802H40.4975V51.4385H39.718C39.3622 51.4385 39.0735 51.7269 39.0735 52.083C39.0735 52.4392 39.3622 52.7276 39.718 52.7276H40.4972V55.7099H30.3968V52.7279H31.176C31.5318 52.7279 31.8205 52.4395 31.8205 52.0834C31.8205 51.7272 31.5318 51.4388 31.176 51.4388H30.3968V49.8802H32.0954C32.4516 49.8802 32.74 49.5918 32.74 49.2357C32.74 48.8798 32.4516 48.5911 32.0954 48.5911H28.9728V47.0328H41.9212V48.5911ZM43.3449 45.7438H27.5494V44.1855H41.14H41.1414H41.1427H43.3449V45.7438ZM44.7686 36.5921L43.4842 38.6254H41.8537C41.4979 38.6254 41.2092 38.9137 41.2092 39.2699C41.2092 39.6261 41.4979 39.9144 41.8537 39.9144H42.6701L40.7865 42.8964H36.0915V41.4053C36.0915 41.0494 35.8032 40.7607 35.447 40.7607C35.0912 40.7607 34.8025 41.0494 34.8025 41.4053V42.8964H30.1074L28.2242 39.9144H29.0403C29.3964 39.9144 29.6848 39.6261 29.6848 39.2699C29.6848 38.9137 29.3964 38.6254 29.0403 38.6254H27.4098L26.1258 36.5921V36.2342L34.402 21.4063H34.8025V33.034C33.977 33.3056 33.3788 34.0834 33.3788 34.9985C33.3788 36.1392 34.3066 37.0671 35.447 37.0671C36.5877 37.0671 37.5155 36.1392 37.5155 34.9985C37.5155 34.0834 36.9173 33.3053 36.0919 33.034V21.4063H36.4923L44.7686 36.2342V36.5921Z" fill="white" stroke="white" stroke-width="2" mask="url(#path-3-inside-1)"/>
</svg>
