<svg width="70" height="70" viewBox="0 0 70 70" fill="none" xmlns="http://www.w3.org/2000/svg">
<rect y="-0.000976562" width="70" height="70" fill="#E3B873"/>
<path d="M57 27.1814C57 25.2559 55.4337 23.6895 53.5081 23.6895H49.1696V21.4867C49.1696 21.1309 48.8813 20.8422 48.5251 20.8422H47.0339V17.2157C47.0339 16.8598 46.7456 16.5711 46.3894 16.5711H41.3392V15.792C41.3392 15.4362 41.0505 15.1475 40.6947 15.1475H29.305C28.9491 15.1475 28.6604 15.4362 28.6604 15.792V16.5711H23.6103C23.2541 16.5711 22.9657 16.8598 22.9657 17.2157V20.8422H21.4746C21.1187 20.8422 20.83 21.1309 20.83 21.4867V23.6895H16.4919C14.5663 23.6895 13 25.2559 13 27.1814V35.7238C13 36.08 13.2887 36.3683 13.6445 36.3683H14.4233V51.3846C14.4233 53.3101 15.99 54.8764 17.9152 54.8764H52.0844C54.01 54.8764 55.5763 53.3101 55.5763 51.3846V36.3683H56.3555C56.5263 36.3683 56.6905 36.3005 56.8113 36.1797C56.9322 36.0588 57 35.895 57 35.7238V27.1814ZM47.8806 22.1312V23.6895H44.8986V22.1312H47.8806ZM29.9495 16.4365H40.0502V17.9948H29.9495V16.4365ZM22.1191 22.1312H25.1014V23.6895H22.1191V22.1312ZM54.2873 51.3846C54.2873 52.5994 53.299 53.5874 52.0844 53.5874H17.9152C16.7007 53.5874 15.7124 52.5994 15.7124 51.3846V36.3683H20.118V37.9266H19.3389C18.9831 37.9266 18.6944 38.2153 18.6944 38.5711V41.4185C18.6944 41.7743 18.9831 42.063 19.3389 42.063H20.118V44.2658C20.118 44.5102 20.256 44.7331 20.4745 44.8422L23.3219 46.2662C23.4125 46.3119 23.5112 46.3344 23.6103 46.3344C23.709 46.3344 23.8076 46.3119 23.8983 46.2662L26.7456 44.8422C26.9638 44.7331 27.1021 44.5102 27.1021 44.2658V42.063H27.881C28.2371 42.063 28.5255 41.7743 28.5255 41.4185V38.5711C28.5255 38.2153 28.2371 37.9266 27.881 37.9266H27.1021V36.3683H31.5078V39.2831C31.5078 39.639 31.7965 39.9277 32.1523 39.9277H37.8474C38.2032 39.9277 38.4919 39.639 38.4919 39.2831V36.3683H42.8975V37.9266H42.1184C41.7622 37.9266 41.4738 38.2153 41.4738 38.5711V41.4185C41.4738 41.7743 41.7622 42.063 42.1184 42.063H42.8975V44.2658C42.8975 44.5099 43.0352 44.7331 43.2537 44.8422L46.101 46.2662C46.1917 46.3119 46.2907 46.3344 46.3894 46.3344C46.4881 46.3344 46.5868 46.3119 46.6778 46.2662L49.5251 44.8422C49.7433 44.7331 49.8813 44.5102 49.8813 44.2658V42.063H50.6604C51.0166 42.063 51.305 41.7743 51.305 41.4185V38.5711C51.305 38.2153 51.0166 37.9266 50.6604 37.9266H49.8813V36.3683H54.2873V51.3846ZM21.4074 35.7255C21.4074 35.7251 21.4074 35.7245 21.4074 35.7238C21.4074 35.7234 21.4074 35.7228 21.4074 35.7221V33.521H25.8131V37.9266H21.4074V35.7255ZM19.9838 32.2319V30.6733H27.2368V32.2319H19.9838ZM27.2368 39.2157V40.774H19.9838V39.2157H27.2368ZM25.8131 42.063V43.8677L23.6103 44.9695L21.4074 43.8677V42.063H25.8131ZM34.3555 36.3683V37.1475C34.3555 37.5036 34.6438 37.792 35 37.792C35.3558 37.792 35.6445 37.5036 35.6445 37.1475V36.3683H37.2028V38.6386H32.7968V36.3683H34.3555ZM32.7968 35.0793V34.233H37.2028V35.0793H32.7968ZM44.1866 35.7255C44.1866 35.7251 44.1866 35.7245 44.1866 35.7238C44.1866 35.7234 44.1866 35.7228 44.1866 35.7221V33.521H48.5922V37.9266H44.1866V35.7255ZM42.7629 32.2319V30.6733H50.0159V32.2319H42.7629ZM50.0159 39.2157V40.774H42.7629V39.2157H50.0159ZM48.5922 42.063V43.8677L46.3894 44.9695L44.1866 43.8677V42.063H48.5922ZM54.9345 35.0793C54.9335 35.0793 54.9328 35.0793 54.9318 35.0793C54.9311 35.0793 54.9301 35.0793 54.9294 35.0793H49.8813V33.521H50.6604C51.0166 33.521 51.305 33.2323 51.305 32.8764V30.6736H51.3724C51.7286 30.6736 52.017 30.3849 52.017 30.0291C52.017 29.6729 51.7286 29.3846 51.3724 29.3846H41.4067C41.0505 29.3846 40.7622 29.6729 40.7622 30.0291C40.7622 30.3849 41.0505 30.6736 41.4067 30.6736H41.4738V32.8764C41.4738 33.2323 41.7625 33.521 42.1184 33.521H42.8975V35.0793H38.4919V33.5884C38.4919 33.2323 38.2032 32.9439 37.8474 32.9439H32.1523C31.7965 32.9439 31.5078 33.2323 31.5078 33.5884V35.0793H27.1021V33.521H27.8813C28.2371 33.521 28.5258 33.2323 28.5258 32.8764V30.6736H28.5933C28.9491 30.6736 29.2378 30.3849 29.2378 30.0291C29.2378 29.6729 28.9491 29.3846 28.5933 29.3846H18.6272C18.2714 29.3846 17.9827 29.6729 17.9827 30.0291C17.9827 30.3849 18.2714 30.6736 18.6272 30.6736H18.6947V32.8764C18.6947 33.2323 18.9831 33.521 19.3392 33.521H20.1184V35.0793H14.2891V27.1814C14.2891 25.9669 15.2773 24.9786 16.4919 24.9786H28.5933C28.9491 24.9786 29.2378 24.6899 29.2378 24.334C29.2378 23.9782 28.9491 23.6895 28.5933 23.6895H26.3905V21.4867C26.3905 21.1309 26.1018 20.8422 25.7459 20.8422H24.2548V17.8602H28.6604V18.6393C28.6604 18.9955 28.9491 19.2839 29.305 19.2839H40.6947C41.0505 19.2839 41.3392 18.9955 41.3392 18.6393V17.8602H45.7452V20.8422H44.2541C43.8979 20.8422 43.6095 21.1309 43.6095 21.4867V23.6895H31.1754C30.8196 23.6895 30.5309 23.9782 30.5309 24.334C30.5309 24.6899 30.8196 24.9786 31.1754 24.9786H53.5081C54.7227 24.9786 55.7109 25.9669 55.7109 27.1814V35.0793H54.9345Z" fill="white"/>
<path d="M17.271 51.3843C17.271 51.7404 17.5594 52.0288 17.9156 52.0288H52.0844C52.4403 52.0288 52.729 51.7404 52.729 51.3843C52.729 51.0284 52.4403 50.7397 52.0844 50.7397H17.9156C17.5594 50.7397 17.271 51.0284 17.271 51.3843Z" fill="white"/>
</svg>
